<svg width="132.000000pt" height="65.000000pt" viewBox="0 0 132.000000 65.000000" xmlns="http://www.w3.org/2000/svg">
  <g transform="translate(0.000000,65.000000) scale(0.100000,-0.100000)" fill="#fefefe" stroke="none">
    <path d="M0 325 l0 -325 660 0 660 0 0 325 0 325 -660 0 -660 0 0 -325z m353
202 c214 -90 156 -417 -74 -417 l-50 0 -37 19 c-167 86 -173 309 -10 390 l43
21 48 0 c26 0 62 -6 80 -13z m207 -145 c0 -33 25 -72 47 -72 22 0 42 30 43 62
0 32 17 46 26 23 l7 -17 -32 -44 c-17 -25 -31 -56 -31 -69 0 -14 -4 -25 -10
-25 -5 0 -10 10 -10 23 0 12 -14 40 -30 61 -29 39 -40 86 -20 86 6 0 10 -12
10 -28z m291 -1 l29 -29 0 -27 c0 -15 -9 -40 -21 -56 l-20 -29 -39 0 -39 0
-20 26 c-12 15 -21 39 -21 55 l0 27 26 31 26 31 25 0 25 0 29 -29z m99 -12 l0
-40 32 3 33 3 22 40 c13 22 23 35 23 28 0 -18 -22 -63 -32 -63 -14 0 -9 -34
12 -67 11 -18 16 -33 11 -33 -4 0 -16 16 -27 35 l-19 35 -27 0 -28 0 0 -35 c0
-19 -4 -35 -10 -35 l-10 0 0 85 0 85 10 0 10 0 0 -41z m291 12 l29 -29 0 -27
c0 -15 -9 -40 -21 -56 l-20 -29 -38 0 -38 0 -16 18 c-8 9 -20 29 -25 43 l-10
25 10 20 c6 10 20 29 31 42 l20 22 25 0 24 0 29 -29z" />
    <path d="M752 378 c-7 -7 -12 -31 -12 -54 l0 -43 16 -15 c20 -20 53 -20 82 0
l22 15 0 39 0 39 -16 15 c-18 19 -75 21 -92 4z" />
    <path d="M1142 378 c-7 -7 -12 -31 -12 -54 l0 -43 16 -15 c20 -20 53 -20 82 0
l22 15 0 39 0 39 -16 15 c-18 19 -75 21 -92 4z" />
  </g>
  <g transform="translate(0.000000,65.000000) scale(0.100000,-0.100000)" fill="#419aa0" stroke="none">
    <path d="M172 529 c-100 -50 -149 -182 -106 -289 19 -46 15 -45 80 -23 58 19
86 36 135 79 21 18 53 40 74 50 20 9 50 30 66 46 l29 30 0 22 0 22 -32 31
c-42 41 -76 53 -146 53 l-57 0 -43 -21z" />
  </g>
  <g transform="translate(0.000000,65.000000) scale(0.100000,-0.100000)" fill="#c6dec1" stroke="none">
    <path d="M440 436 c0 -16 -90 -88 -125 -100 -11 -3 -44 -29 -73 -56 l-53 -49
-15 6 -14 5 -6 -17 -7 -16 -23 5 -23 6 -6 -11 c-10 -16 25 -49 52 -49 l24 0 5
15 6 15 43 0 43 0 6 -15 5 -15 37 0 38 0 31 35 c18 19 35 32 39 28 10 -10 7
-43 -4 -43 -5 0 -10 -7 -10 -15 0 -21 13 -19 38 8 32 34 52 91 52 149 l0 53
-18 34 c-9 19 -23 37 -29 39 l-13 4 0 -16z" />
  </g>
  <g transform="translate(0.000000,65.000000) scale(0.100000,-0.100000)" fill="#000000" stroke="none">
    <path d="M530 387 l0 -33 30 -40 c16 -21 30 -49 30 -61 l0 -23 20 0 20 0 0 25
c0 13 13 44 30 67 l29 43 -6 28 -6 28 -16 -3 -16 -3 -5 -30 c-3 -17 -11 -39
-17 -50 l-13 -20 -20 24 c-11 13 -20 36 -20 52 l0 29 -20 0 -20 0 0 -33z" />
    <path d="M736 389 l-26 -31 0 -37 0 -38 21 -27 20 -26 49 0 49 0 20 29 21 29
0 37 0 37 -29 29 -29 29 -35 0 -35 0 -26 -31z m98 -25 c9 -8 16 -28 16 -44 l0
-29 -22 -15 c-42 -30 -78 -7 -78 48 0 53 48 76 84 40z" />
    <path d="M920 325 l0 -95 20 0 20 0 0 35 0 35 18 0 17 0 19 -35 19 -35 19 0
c23 0 23 11 -4 55 l-21 37 11 7 c6 4 18 24 27 44 l15 37 -17 7 c-9 4 -18 2
-20 -3 -2 -5 -12 -24 -23 -41 l-20 -33 -20 0 -20 0 0 40 0 40 -20 0 -20 0 0
-95z" />
    <path d="M1126 389 l-26 -31 0 -37 0 -38 21 -27 20 -26 49 0 49 0 20 29 21 29
0 37 0 37 -29 29 -29 29 -35 0 -35 0 -26 -31z m98 -25 c9 -8 16 -28 16 -44 l0
-29 -22 -15 c-42 -30 -78 -7 -78 48 0 53 48 76 84 40z" />
  </g>
  <g transform="translate(0.000000,65.000000) scale(0.100000,-0.100000)" fill="#c9dfc3" stroke="none">
    <path d="M423 414 c-12 -16 -38 -38 -60 -49 -64 -33 -83 -47 -77 -57 l6 -9 16
14 c10 8 26 18 37 21 30 10 108 83 103 97 l-4 12 -21 -29z" />
    <path d="M473 303 l2 -61 -17 9 -18 10 0 -15 0 -15 -15 5 -15 6 -33 -36 -33
-36 -28 0 -27 0 -5 15 -6 15 -53 0 -53 0 -6 -15 c-3 -8 -14 -15 -24 -15 l-19
0 0 15 0 15 25 0 24 0 -5 14 -6 15 14 -5 c7 -3 23 0 34 6 l22 11 -8 12 -7 12
17 -14 c21 -16 30 -11 21 13 l-6 16 -32 -19 c-17 -10 -50 -25 -73 -31 l-42
-13 11 -21 c6 -12 9 -23 7 -26 -2 -3 19 -20 46 -38 l50 -34 77 4 77 3 28 22
c15 12 27 27 25 35 -2 7 0 10 4 6 4 -4 13 -3 21 3 l13 12 -11 14 c-14 16 -9
23 18 27 l18 3 -3 33 -4 32 11 -7 11 -6 0 16 0 16 -10 -6 -10 -6 0 16 0 16 10
-6 10 -6 0 16 c0 9 -4 14 -9 11 -5 -4 -12 0 -15 6 -3 7 -4 -15 -3 -49z" />
  </g>
  <g transform="translate(0.000000,65.000000) scale(0.100000,-0.100000)" fill="#f3f5f5" stroke="none">
    <path d="M133 504 c-18 -14 -33 -30 -33 -36 0 -5 10 -1 23 11 12 12 31 28 42
36 11 8 16 14 10 15 -5 0 -25 -12 -42 -26z" />
    <path d="M737 337 c-6 -16 9 -75 17 -66 2 2 1 22 -3 44 l-7 40 -7 -18z" />
  </g>
  <g transform="translate(0.000000,65.000000) scale(0.100000,-0.100000)" fill="#e7edea" stroke="none">
    <path d="M670 391 c4 -16 6 -32 4 -35 -2 -4 1 -2 7 3 l12 10 -7 25 c-3 14 -10
26 -15 26 l-10 0 9 -29z" />
  </g>
  <g transform="translate(0.000000,65.000000) scale(0.100000,-0.100000)" fill="#111111" stroke="none">
    <path d="M1021 258 l12 -28 23 0 23 0 -6 16 -6 16 -8 -14 -9 -13 -20 25 -21
25 12 -27z" />
  </g>
  <g transform="translate(0.000000,65.000000) scale(0.100000,-0.100000)" fill="#dbe5dd" stroke="none" />
  <g transform="translate(0.000000,65.000000) scale(0.100000,-0.100000)" fill="#cddbcc" stroke="none" />
  <g transform="translate(0.000000,65.000000) scale(0.100000,-0.100000)" fill="#6eb0ad" stroke="none">
    <path d="M196 251 c-6 -9 -96 -37 -109 -33 -5 1 -6 -2 -3 -7 l6 -10 28 9 c61
19 92 32 92 41 0 11 -7 12 -14 0z" />
  </g>
  <g transform="translate(0.000000,65.000000) scale(0.100000,-0.100000)" fill="#aaabac" stroke="none">
    <path d="M923 315 c0 -33 2 -45 4 -27 2 18 2 45 0 60 -2 15 -4 0 -4 -33z" />
  </g>
  <g transform="translate(0.000000,65.000000) scale(0.100000,-0.100000)" fill="#4d4e4e" stroke="none" />
  <g transform="translate(0.000000,65.000000) scale(0.100000,-0.100000)" fill="#bbbcbd" stroke="none" />
  <g transform="translate(0.000000,65.000000) scale(0.100000,-0.100000)" fill="#949696" stroke="none" />
  <g transform="translate(0.000000,65.000000) scale(0.100000,-0.100000)" fill="#606161" stroke="none" />
  <g transform="translate(0.000000,65.000000) scale(0.100000,-0.100000)" fill="#252525" stroke="none" />
  <g transform="translate(0.000000,65.000000) scale(0.100000,-0.100000)" fill="#6d6e6f" stroke="none" />
  <g transform="translate(0.000000,65.000000) scale(0.100000,-0.100000)" fill="#91c3b9" stroke="none" />
  <g transform="translate(0.000000,65.000000) scale(0.100000,-0.100000)" fill="#52a2a3" stroke="none" />
  <g transform="translate(0.000000,65.000000) scale(0.100000,-0.100000)" fill="#d6d7d8" stroke="none" />
  <g transform="translate(0.000000,65.000000) scale(0.100000,-0.100000)" fill="#808182" stroke="none" />
  <g transform="translate(0.000000,65.000000) scale(0.100000,-0.100000)" fill="#373838" stroke="none" />
  <g transform="translate(0.000000,65.000000) scale(0.100000,-0.100000)" fill="#afd1c1" stroke="none" />
  <g transform="translate(0.000000,65.000000) scale(0.100000,-0.100000)" fill="#bcdadd" stroke="none" />
</svg>